<svg width="37" height="38" viewBox="0 0 37 38" fill="none" xmlns="http://www.w3.org/2000/svg">
<path d="M35.4975 11.6877C32.5463 13.1938 29.4088 14.303 26.1668 14.9864V25.4328C26.1658 25.7374 26.0444 26.0293 25.8289 26.2447C25.6134 26.46 25.3215 26.5813 25.0169 26.5821H24.1816C23.8769 26.5813 23.585 26.46 23.3695 26.2447C23.1541 26.0293 23.0326 25.7374 23.0317 25.4328V15.5093C22.1119 15.6233 21.1604 15.7056 20.1802 15.7507V26.7073C20.1794 27.0352 20.0489 27.3494 19.8173 27.5814C19.5856 27.8134 19.2715 27.9442 18.9437 27.9453H18.2822C17.9546 27.9442 17.6408 27.8136 17.4091 27.5819C17.1775 27.3502 17.0469 27.0364 17.0457 26.7087V15.7591C16.0662 15.7211 15.1156 15.6475 14.1942 15.5381V25.4328C14.1933 25.7374 14.0718 26.0293 13.8564 26.2447C13.6409 26.46 13.349 26.5813 13.0443 26.5821H12.209C11.9045 26.5811 11.6128 26.4597 11.3974 26.2444C11.1821 26.0291 11.0608 25.7373 11.0598 25.4328V15.0391C7.7359 14.3628 4.51864 13.2401 1.49544 11.7018C0.505422 14.0069 -0.00345007 16.4899 1.76039e-05 18.9987C1.76039e-05 29.2171 8.28291 37.5 18.5004 37.5C28.7178 37.5 37 29.2171 37 18.9987C37.0029 16.4847 36.4916 13.9967 35.4975 11.6877ZM18.2822 12.9383H18.9437C19.2266 12.9392 19.5008 13.0367 19.7207 13.2148C19.9406 13.3928 20.093 13.6407 20.1527 13.9173C25.2189 13.6729 30.1747 12.3508 34.6896 10.0394C33.0875 7.14744 30.7401 4.73742 27.8915 3.05984C25.0428 1.38225 21.7969 0.49835 18.491 0.500002C15.1852 0.501655 11.9401 1.3888 9.0931 3.06923C6.24611 4.74966 3.90113 7.16203 2.30192 10.0556C6.8878 12.3964 11.926 13.717 17.0704 13.9264C17.1286 13.6478 17.2807 13.3976 17.5013 13.2178C17.7219 13.0379 17.9976 12.9392 18.2822 12.9383Z" fill="#242424"/>
</svg>
